<svg id="Layer_1" data-name="Layer 1" xmlns="http://www.w3.org/2000/svg" viewBox="0 0 327.9221 68.5122"><defs><style>.cls-1{fill:#e4611b;}.cls-2{fill:#fff;}</style></defs><path class="cls-1" d="M30.7553,14.6849c.2366,2.13-.5917,3.189-2.68,3.55-3.7451.5916-10.1644,2.4967-14.5662,8.206-6.23,8.076-5.5555,15.8324-4.597,19.7314a3.1357,3.1357,0,0,1-1.87,3.7983h0a3.16,3.16,0,0,1-4.4669-2.053A32.2861,32.2861,0,0,1,23.9733,7.5827q1.1747-.36,2.3743-.6306c2.3192-.5147,3.6031.4438,3.8634,2.81ZM59.8522,50c2.1773.9526,3.65.3255,4.36-1.94A32.2978,32.2978,0,0,0,42.974,7.6218q-1.16-.3611-2.3442-.6341a3.1651,3.1651,0,0,0-4.0172,2.84h0a3.1474,3.1474,0,0,0,2.3665,3.52c3.8516,1.1182,10.91,4.4137,14.7911,13.8563,2.7452,6.6619,1.1833,13.1581-.1775,16.7139-.7573,2.0056-.2366,3.23,1.7217,4.0882ZM10.1839,55.55c-1.911,1.4082-2.1063,3-.497,4.7332A32.2859,32.2859,0,0,0,55.3091,62.12q.9019-.832,1.7388-1.7309a3.1594,3.1594,0,0,0-.4556-4.8929h0a3.1356,3.1356,0,0,0-4.2243.2781c-2.905,2.7926-9.277,7.2594-19.4,5.9282-7.1411-.9762-11.9748-5.5969-14.3887-8.5315-1.3608-1.6625-2.6742-1.8222-4.4018-.5561ZM23.7385,31.9845a6.4549,6.4549,0,1,0,6.4548,6.4549v0h0A6.4608,6.4608,0,0,0,23.7385,31.9845Zm19.3585,0a6.4549,6.4549,0,1,0,6.4489,6.4608v-.006a6.455,6.455,0,0,0-6.4489-6.4548Z" transform="translate(-1.1472 -2.1643)"/><path class="cls-1" d="M99.2023,33.12H91.8838a.8842.8842,0,0,1-.6816-.2954,1.0167,1.0167,0,0,1-.2989-.7355V23.0125a1.0183,1.0183,0,0,1,.2984-.7355.886.886,0,0,1,.6821-.2954h4.4724a.8872.8872,0,0,1,.6811.2944,1.034,1.034,0,0,1,.2994.7365v4.296a.2817.2817,0,0,0,.2858.2774h11.3732a.2817.2817,0,0,0,.2858-.2774V23.2491c0-7.2765-3.5823-10.9667-10.6483-10.9667H89.6068c-7.0653,0-10.6477,3.69-10.6477,10.9667v10.182c0,7.2765,3.5824,10.9666,10.6477,10.9666h7.3185a.8849.8849,0,0,1,.6811.2944,1.0336,1.0336,0,0,1,.2994.7355V55.4522a1.0177,1.0177,0,0,1-.2989.7344.8836.8836,0,0,1-.6816.2955H91.8838a.8832.8832,0,0,1-.6816-.2955,1.0157,1.0157,0,0,1-.2989-.7344V49.498a.2816.2816,0,0,0-.2858-.2774H79.2449a.2817.2817,0,0,0-.2858.2774v5.5592c0,7.2765,3.5824,10.9667,10.6477,10.9667h9.5955c7.066,0,10.6483-3.69,10.6483-10.9667V44.0862C109.8506,36.921,106.271,33.2309,99.2023,33.12Z" transform="translate(-1.1472 -2.1643)"/><path class="cls-1" d="M170.36,12.2824H158.7189a.2834.2834,0,0,0-.2816.2511L154.576,46.1168a.2835.2835,0,0,1-.5618.0107l-5.176-33.6048a.2835.2835,0,0,0-.28-.24H137.993a.2835.2835,0,0,0-.28.24l-5.1755,33.6048a.2835.2835,0,0,1-.5618-.0107l-3.8618-33.5833a.2835.2835,0,0,0-.2817-.2511h-11.64a.2835.2835,0,0,0-.28.3289l8.63,53.1745a.2836.2836,0,0,0,.28.2381h13.4072a.2836.2836,0,0,0,.28-.2377l4.4873-27.406a.2835.2835,0,0,1,.56,0l4.4873,27.406a.2836.2836,0,0,0,.28.2377H161.73a.2836.2836,0,0,0,.28-.2381l8.63-53.1745A.2835.2835,0,0,0,170.36,12.2824Z" transform="translate(-1.1472 -2.1643)"/><path class="cls-1" d="M199.2206,11.47H188.4052c-7.0653,0-10.6477,3.8018-10.6477,11.2984V65.7413a.2826.2826,0,0,0,.2826.2826h11.9487a.2826.2826,0,0,0,.2826-.2826V48.6605a.2825.2825,0,0,1,.2826-.2824h6.5184a.2825.2825,0,0,1,.2826.2824V65.7413a.2825.2825,0,0,0,.2825.2826h11.9488a.2825.2825,0,0,0,.2825-.2826V22.768C209.8688,15.2714,206.2865,11.47,199.2206,11.47Zm-1.8656,9.9153V38.1835a.2825.2825,0,0,1-.2826.2825H190.554a.2825.2825,0,0,1-.2826-.2825V21.3849a1.0776,1.0776,0,0,1,.2994-.7577.8666.8666,0,0,1,.68-.3033h5.1232a.8741.8741,0,0,1,.681.3033A1.0817,1.0817,0,0,1,197.355,21.3849Z" transform="translate(-1.1472 -2.1643)"/><path class="cls-1" d="M240.2844,12.2824H219.4283a.2821.2821,0,0,0-.2822.2822V65.7417a.2822.2822,0,0,0,.2822.2822h11.95a.2822.2822,0,0,0,.2821-.2822V48.5179a.2821.2821,0,0,1,.2821-.2821h8.3423c7.0654,0,10.6477-3.8018,10.6477-11.2985V23.5808C250.9321,16.0842,247.35,12.2824,240.2844,12.2824Zm-1.8662,9.997V37.405a1.0628,1.0628,0,0,1-.2989.7566.8716.8716,0,0,1-.681.3044h-5.4962a.2821.2821,0,0,1-.2821-.2821V21.5005a.2821.2821,0,0,1,.2821-.2821h5.4962a.8716.8716,0,0,1,.681.3044A1.0767,1.0767,0,0,1,238.4182,22.2794Z" transform="translate(-1.1472 -2.1643)"/><path class="cls-1" d="M279.437,12.2824H258.5809a.2821.2821,0,0,0-.2822.2822V65.7417a.2822.2822,0,0,0,.2822.2822h11.95a.2822.2822,0,0,0,.2821-.2822V48.5179a.2821.2821,0,0,1,.2821-.2821h8.3423c7.0654,0,10.6477-3.8018,10.6477-11.2985V23.5808C290.0847,16.0842,286.5024,12.2824,279.437,12.2824Zm-1.8662,9.997V37.405a1.0628,1.0628,0,0,1-.2989.7566.8716.8716,0,0,1-.681.3044h-5.4962a.2821.2821,0,0,1-.2821-.2821V21.5005a.2821.2821,0,0,1,.2821-.2821h5.4962a.8716.8716,0,0,1,.681.3044A1.0767,1.0767,0,0,1,277.5708,22.2794Z" transform="translate(-1.1472 -2.1643)"/><path class="cls-1" d="M318.421,11.47H307.6057c-7.0654,0-10.6477,3.8018-10.6477,11.2984V65.7394a.2845.2845,0,0,0,.2845.2845h11.9448a.2845.2845,0,0,0,.2845-.2845V48.6625a.2844.2844,0,0,1,.2845-.2844h6.5146a.2844.2844,0,0,1,.2845.2844V65.7394a.2845.2845,0,0,0,.2845.2845h11.9449a.2845.2845,0,0,0,.2845-.2845V22.768C329.0693,15.2714,325.4869,11.47,318.421,11.47Zm-1.8656,9.9153V38.1815a.2845.2845,0,0,1-.2845.2845h-6.5146a.2845.2845,0,0,1-.2845-.2845V21.3849a1.0772,1.0772,0,0,1,.3-.7577.8663.8663,0,0,1,.68-.3033h5.1231a.8743.8743,0,0,1,.6811.3033A1.0821,1.0821,0,0,1,316.5554,21.3849Z" transform="translate(-1.1472 -2.1643)"/><path class="cls-2" d="M30.7553,10.0323c.2366,2.13-.5917,3.1889-2.68,3.55-3.7451.5917-10.1644,2.4968-14.5662,8.2061-6.23,8.0759-5.5555,15.8323-4.597,19.7313a3.1356,3.1356,0,0,1-1.87,3.7983h0a3.1593,3.1593,0,0,1-4.4669-2.053A32.286,32.286,0,0,1,23.9733,2.93Q25.148,2.57,26.3476,2.3c2.3192-.5147,3.6031.4437,3.8634,2.81ZM59.8522,45.3474c2.1773.9525,3.65.3254,4.36-1.9406A32.2978,32.2978,0,0,0,42.974,2.9691q-1.16-.361-2.3442-.6341a3.1651,3.1651,0,0,0-4.0172,2.84h0a3.1475,3.1475,0,0,0,2.3665,3.52c3.8516,1.1182,10.91,4.4136,14.7911,13.8562,2.7452,6.6619,1.1833,13.1582-.1775,16.7139-.7573,2.0057-.2366,3.23,1.7217,4.0883Zm-49.6683,5.55c-1.911,1.4081-2.1063,3-.497,4.7331a32.2859,32.2859,0,0,0,45.6222,1.8375q.9019-.832,1.7388-1.731a3.1591,3.1591,0,0,0-.4556-4.8928h0a3.1357,3.1357,0,0,0-4.2243.278c-2.905,2.7926-9.277,7.26-19.4,5.9283-7.1411-.9763-11.9748-5.597-14.3887-8.5315-1.3608-1.6625-2.6742-1.8223-4.4018-.5561ZM23.7385,27.3319a6.4548,6.4548,0,1,0,6.4548,6.4548h0A6.4608,6.4608,0,0,0,23.7385,27.3319Zm19.3585,0a6.4548,6.4548,0,1,0,6.4489,6.4608v-.006a6.4549,6.4549,0,0,0-6.4489-6.4548Z" transform="translate(-1.1472 -2.1643)"/><path class="cls-2" d="M99.2023,28.4669H91.8838a.8839.8839,0,0,1-.6816-.2955,1.0163,1.0163,0,0,1-.2989-.7354V18.36a1.0181,1.0181,0,0,1,.2984-.7355.8857.8857,0,0,1,.6821-.2955h4.4724a.8872.8872,0,0,1,.6811.2944,1.0341,1.0341,0,0,1,.2994.7366v4.2959a.2817.2817,0,0,0,.2858.2774h11.3732a.2817.2817,0,0,0,.2858-.2774V18.5965c0-7.2765-3.5823-10.9667-10.6483-10.9667H89.6068c-7.0653,0-10.6477,3.69-10.6477,10.9667V28.7784c0,7.2765,3.5824,10.9667,10.6477,10.9667h7.3185a.8846.8846,0,0,1,.6811.2944,1.0334,1.0334,0,0,1,.2994.7355V50.8a1.0181,1.0181,0,0,1-.2989.7344.8839.8839,0,0,1-.6816.2954H91.8838a.8835.8835,0,0,1-.6816-.2954,1.016,1.016,0,0,1-.2989-.7344V44.8453a.2817.2817,0,0,0-.2858-.2774H79.2449a.2817.2817,0,0,0-.2858.2774v5.5592c0,7.2765,3.5824,10.9667,10.6477,10.9667h9.5955c7.066,0,10.6483-3.69,10.6483-10.9667V39.4336C109.8506,32.2684,106.271,28.5782,99.2023,28.4669Z" transform="translate(-1.1472 -2.1643)"/><path class="cls-2" d="M170.36,7.63H158.7189a.2834.2834,0,0,0-.2816.2511L154.576,41.4641a.2835.2835,0,0,1-.5618.0108L148.8382,7.87a.2835.2835,0,0,0-.28-.24H137.993a.2835.2835,0,0,0-.28.24l-5.1755,33.6048a.2835.2835,0,0,1-.5618-.0108L128.1137,7.8808a.2835.2835,0,0,0-.2817-.251h-11.64a.2835.2835,0,0,0-.28.3289l8.63,53.1744a.2835.2835,0,0,0,.28.2381h13.4072a.2835.2835,0,0,0,.28-.2377l4.4873-27.4059a.2835.2835,0,0,1,.56,0l4.4873,27.4059a.2835.2835,0,0,0,.28.2377H161.73a.2835.2835,0,0,0,.28-.2381l8.63-53.1744A.2835.2835,0,0,0,170.36,7.63Z" transform="translate(-1.1472 -2.1643)"/><path class="cls-2" d="M199.2206,6.8169H188.4052c-7.0653,0-10.6477,3.8018-10.6477,11.2984V61.0887a.2825.2825,0,0,0,.2826.2825h11.9487a.2825.2825,0,0,0,.2826-.2825V44.0079a.2825.2825,0,0,1,.2826-.2825h6.5184a.2825.2825,0,0,1,.2826.2825V61.0887a.2825.2825,0,0,0,.2825.2825h11.9488a.2825.2825,0,0,0,.2825-.2825V18.1153C209.8688,10.6187,206.2865,6.8169,199.2206,6.8169Zm-1.8656,9.9154V33.5308a.2826.2826,0,0,1-.2826.2826H190.554a.2826.2826,0,0,1-.2826-.2826V16.7323a1.0774,1.0774,0,0,1,.2994-.7577.8666.8666,0,0,1,.68-.3033h5.1232a.8741.8741,0,0,1,.681.3033A1.0816,1.0816,0,0,1,197.355,16.7323Z" transform="translate(-1.1472 -2.1643)"/><path class="cls-2" d="M240.2844,7.63H219.4283a.2821.2821,0,0,0-.2822.2821V61.0891a.2821.2821,0,0,0,.2822.2821h11.95a.2821.2821,0,0,0,.2821-.2821V43.8653a.2821.2821,0,0,1,.2821-.2822h8.3423c7.0654,0,10.6477-3.8018,10.6477-11.2984V18.9282C250.9321,11.4316,247.35,7.63,240.2844,7.63Zm-1.8662,9.9969V32.7524a1.0629,1.0629,0,0,1-.2989.7566.8719.8719,0,0,1-.681.3044h-5.4962a.2822.2822,0,0,1-.2821-.2822V16.8479a.2821.2821,0,0,1,.2821-.2822h5.4962a.8719.8719,0,0,1,.681.3044A1.0768,1.0768,0,0,1,238.4182,17.6267Z" transform="translate(-1.1472 -2.1643)"/><path class="cls-2" d="M279.437,7.63H258.5809a.2821.2821,0,0,0-.2822.2821V61.0891a.2821.2821,0,0,0,.2822.2821h11.95a.2821.2821,0,0,0,.2821-.2821V43.8653a.2821.2821,0,0,1,.2821-.2822h8.3423c7.0654,0,10.6477-3.8018,10.6477-11.2984V18.9282C290.0847,11.4316,286.5024,7.63,279.437,7.63Zm-1.8662,9.9969V32.7524a1.0629,1.0629,0,0,1-.2989.7566.8719.8719,0,0,1-.681.3044h-5.4962a.2822.2822,0,0,1-.2821-.2822V16.8479a.2821.2821,0,0,1,.2821-.2822h5.4962a.8719.8719,0,0,1,.681.3044A1.0768,1.0768,0,0,1,277.5708,17.6267Z" transform="translate(-1.1472 -2.1643)"/><path class="cls-2" d="M318.421,6.8169H307.6057c-7.0654,0-10.6477,3.8018-10.6477,11.2984V61.0867a.2845.2845,0,0,0,.2845.2845h11.9448a.2845.2845,0,0,0,.2845-.2845V44.01a.2844.2844,0,0,1,.2845-.2844h6.5146a.2844.2844,0,0,1,.2845.2844V61.0867a.2845.2845,0,0,0,.2845.2845h11.9449a.2845.2845,0,0,0,.2845-.2845V18.1153C329.0693,10.6187,325.4869,6.8169,318.421,6.8169Zm-1.8656,9.9154V33.5289a.2845.2845,0,0,1-.2845.2845h-6.5146a.2845.2845,0,0,1-.2845-.2845V16.7323a1.0771,1.0771,0,0,1,.3-.7577.8663.8663,0,0,1,.68-.3033h5.1231a.8743.8743,0,0,1,.6811.3033A1.0819,1.0819,0,0,1,316.5554,16.7323Z" transform="translate(-1.1472 -2.1643)"/></svg>